<?xml version="1.0" ?>
<!DOCTYPE svg  PUBLIC '-//W3C//DTD SVG 1.1//EN'  'http://www.w3.org/Graphics/SVG/1.1/DTD/svg11.dtd'>
<!-- Uploaded to: SVG Repo, www.svgrepo.com, Generator: SVG Repo Mixer Tools -->
<svg width="800px" height="800px" viewBox="0 0 32 32" id="_x3C_Layer_x3E_" version="1.1" xml:space="preserve" xmlns="http://www.w3.org/2000/svg" xmlns:xlink="http://www.w3.org/1999/xlink">
<style type="text/css">
<![CDATA[
	.st0{fill:#E3F2FD;}
	.st1{fill:#80D8FF;}
	.st2{fill:#1AD2A4;}
	.st3{fill:#ECEFF1;}
	.st4{fill:#55FB9B;}
	.st5{fill:#BBDEFB;}
	.st6{fill:#C1AEE1;}
	.st7{fill:#FF5252;}
	.st8{fill:#FF8A80;}
	.st9{fill:#FFB74D;}
	.st10{fill:#FFF176;}
	.st11{fill:#FFFFFF;}
	.st12{fill:#65C7EA;}
	.st13{fill:#CFD8DC;}
	.st14{fill:#37474F;}
	.st15{fill:#78909C;}
	.st16{fill:#42A5F5;}
	.st17{fill:#455A64;}
]]>
</style>
<g id="Ripple_XRP_2_">
<g id="XMLID_64_">
<g id="XMLID_294_">
<path class="st15" d="M19.62,10.45l6.63-6.56h4.19l-8.72,8.64c-3.16,3.12-8.28,3.12-11.44,0L1.55,3.89h4.2     l6.63,6.56C14.38,12.43,17.61,12.43,19.62,10.45z" id="XMLID_8_"/>
</g>
<g id="XMLID_293_">
<path class="st15" d="M10.28,19.42c3.16-3.13,8.28-3.13,11.44,0l8.78,8.69h-4.19l-6.69-6.62     c-2-1.98-5.23-1.98-7.24,0l-6.69,6.62H1.5L10.28,19.42z" id="XMLID_9_"/>
</g>
</g>
<g id="XMLID_63_">
<g id="XMLID_89_">
<path class="st17" d="M16,15.36c-2.2,0-4.4-0.83-6.07-2.48L1.2,4.25C1.05,4.1,1.01,3.89,1.09,3.7     c0.08-0.19,0.26-0.31,0.46-0.31h4.2c0.13,0,0.26,0.05,0.35,0.14l6.63,6.56c1.8,1.78,4.73,1.78,6.54,0l6.63-6.56     c0.09-0.09,0.22-0.14,0.35-0.14h4.19c0.2,0,0.39,0.12,0.46,0.31c0.08,0.19,0.03,0.4-0.11,0.55l-8.72,8.64     C20.4,14.54,18.2,15.36,16,15.36z M2.77,4.39l7.87,7.78c2.96,2.92,7.78,2.92,10.74,0l7.86-7.78h-2.77l-6.48,6.42     c-2.2,2.16-5.76,2.16-7.94,0L5.54,4.39H2.77z" id="XMLID_785_"/>
</g>
<g id="XMLID_88_">
<path class="st17" d="M30.5,28.61h-4.19c-0.13,0-0.26-0.05-0.35-0.14l-6.69-6.62c-1.8-1.78-4.73-1.78-6.54,0     l-6.69,6.62c-0.09,0.09-0.22,0.14-0.35,0.14H1.5c-0.2,0-0.39-0.12-0.46-0.31C0.96,28.11,1,27.9,1.15,27.75l8.78-8.69     c3.35-3.32,8.79-3.31,12.14,0l8.78,8.69c0.14,0.14,0.19,0.36,0.11,0.55C30.89,28.49,30.7,28.61,30.5,28.61z M26.52,27.61h2.77     l-7.92-7.83c-2.96-2.93-7.78-2.93-10.74,0l-7.92,7.83h2.77l6.54-6.48c2.2-2.16,5.76-2.16,7.94,0L26.52,27.61z" id="XMLID_782_"/>
</g>
</g>
</g>
</svg>